<svg width="65" height="66" viewBox="0 0 65 66" fill="none" xmlns="http://www.w3.org/2000/svg">
<rect y="0.5" width="65" height="65" rx="32.5" fill="white"/>
<path d="M56.2414 15.3525C49.0192 9.93587 16.5192 9.93587 9.29695 15.3525C9.29695 15.3525 5.68584 18.9637 7.4914 24.3803H19.2275V19.8664C24.6442 16.2553 40.8942 16.2553 46.3108 19.8664V24.3803H58.047C59.8525 18.9637 56.2414 15.3525 56.2414 15.3525Z" fill="#EA5A47"/>
<path d="M46.0157 19.5902L58.5426 19.5107L58.1445 24.0589L46.8932 23.9795L46.0157 19.5902ZM6.43701 19.5902L18.9649 19.5107L18.5658 24.0589L7.31451 23.9795L6.43701 19.5902Z" fill="#D22F27"/>
<path d="M22.4567 26.9631L17.1529 30.2916L13.7115 37.7964L13.4858 47.727L13.5418 51.0555H51.4585L51.1768 37.1193L47.8474 30.2916L42.3747 26.6805L41.5279 25.4392L23.1907 26.286L22.4567 26.9631Z" fill="#EA5A47"/>
<path d="M24.1493 23.0694L23.4722 26.6805V27.5833H41.6406L40.8786 22.646L38.9891 22.3923L37.6349 24.3676L27.1402 24.4236L26.0117 22.5621L24.0644 22.7029L24.1493 23.0694Z" fill="#D22F27"/>
<path d="M35.519 27.4424C35.519 27.4424 47.1703 31.4201 46.9446 50.8298C52.6998 52.6922 51.9099 44.9617 51.9099 44.9617L49.578 32.8491L44.387 27.2068L35.519 27.4424Z" fill="#D22F27"/>
<path d="M27.0834 33.9029C28.0806 33.9029 28.8889 33.0945 28.8889 32.0973C28.8889 31.1001 28.0806 30.2917 27.0834 30.2917C26.0862 30.2917 25.2778 31.1001 25.2778 32.0973C25.2778 33.0945 26.0862 33.9029 27.0834 33.9029Z" fill="black"/>
<path d="M27.0834 39.3194C28.0806 39.3194 28.8889 38.511 28.8889 37.5138C28.8889 36.5166 28.0806 35.7083 27.0834 35.7083C26.0862 35.7083 25.2778 36.5166 25.2778 37.5138C25.2778 38.511 26.0862 39.3194 27.0834 39.3194Z" fill="black"/>
<path d="M27.0834 44.7361C28.0806 44.7361 28.8889 43.9277 28.8889 42.9306C28.8889 41.9334 28.0806 41.125 27.0834 41.125C26.0862 41.125 25.2778 41.9334 25.2778 42.9306C25.2778 43.9277 26.0862 44.7361 27.0834 44.7361Z" fill="black"/>
<path d="M32.4999 33.9029C33.4971 33.9029 34.3054 33.0945 34.3054 32.0973C34.3054 31.1001 33.4971 30.2917 32.4999 30.2917C31.5027 30.2917 30.6943 31.1001 30.6943 32.0973C30.6943 33.0945 31.5027 33.9029 32.4999 33.9029Z" fill="black"/>
<path d="M32.4999 39.3194C33.4971 39.3194 34.3054 38.511 34.3054 37.5138C34.3054 36.5166 33.4971 35.7083 32.4999 35.7083C31.5027 35.7083 30.6943 36.5166 30.6943 37.5138C30.6943 38.511 31.5027 39.3194 32.4999 39.3194Z" fill="black"/>
<path d="M32.4999 44.7361C33.4971 44.7361 34.3054 43.9277 34.3054 42.9306C34.3054 41.9334 33.4971 41.125 32.4999 41.125C31.5027 41.125 30.6943 41.9334 30.6943 42.9306C30.6943 43.9277 31.5027 44.7361 32.4999 44.7361Z" fill="black"/>
<path d="M37.9169 33.9029C38.9141 33.9029 39.7224 33.0945 39.7224 32.0973C39.7224 31.1001 38.9141 30.2917 37.9169 30.2917C36.9197 30.2917 36.1113 31.1001 36.1113 32.0973C36.1113 33.0945 36.9197 33.9029 37.9169 33.9029Z" fill="black"/>
<path d="M37.9169 39.3194C38.9141 39.3194 39.7224 38.511 39.7224 37.5138C39.7224 36.5166 38.9141 35.7083 37.9169 35.7083C36.9197 35.7083 36.1113 36.5166 36.1113 37.5138C36.1113 38.511 36.9197 39.3194 37.9169 39.3194Z" fill="black"/>
<path d="M37.9169 44.7361C38.9141 44.7361 39.7224 43.9277 39.7224 42.9306C39.7224 41.9334 38.9141 41.125 37.9169 41.125C36.9197 41.125 36.1113 41.9334 36.1113 42.9306C36.1113 43.9277 36.9197 44.7361 37.9169 44.7361Z" fill="black"/>
<path d="M23.4721 22.1667V26.6806C23.4721 26.6806 20.3123 27.132 17.1526 30.2917C13.9929 33.4515 13.5415 39.3195 13.5415 39.3195V51.0556H51.4582V39.4324C51.4582 39.4324 51.0068 33.4515 47.8471 30.2917C44.6873 27.132 41.5276 26.6806 41.5276 26.6806V22.1667H38.8193L37.9165 24.8751H26.9144L26.1804 22.1667H23.4721Z" stroke="black" stroke-width="1.80556" stroke-miterlimit="10" stroke-linecap="round" stroke-linejoin="round"/>
<path d="M55.9577 15.3525C48.7355 9.93587 16.2355 9.93587 9.01326 15.3525C9.01326 15.3525 5.40215 18.9637 7.2077 24.3803H18.9438V19.8664C24.3605 16.2553 40.6105 16.2553 46.0272 19.8664V24.3803H57.7633C59.5688 18.9637 55.9577 15.3525 55.9577 15.3525Z" stroke="black" stroke-width="1.80556" stroke-miterlimit="10" stroke-linecap="round" stroke-linejoin="round"/>
</svg>
