<svg width="65" height="66" viewBox="0 0 65 66" fill="none" xmlns="http://www.w3.org/2000/svg">
<rect y="0.5" width="65" height="65" rx="32.5" fill="white"/>
<g clip-path="url(#clip0_0_1535)">
<path d="M43.3194 11.3333H20.7782C15.2859 11.3333 10.8335 15.7856 10.8335 21.2779V43.8191C10.8335 49.3114 15.2859 53.7638 20.7782 53.7638H43.3194C48.8117 53.7638 53.2641 49.3114 53.2641 43.8191V21.2779C53.2641 15.7856 48.8117 11.3333 43.3194 11.3333Z" fill="url(#paint0_radial_0_1535)"/>
<path d="M43.3194 11.3333H20.7782C15.2859 11.3333 10.8335 15.7856 10.8335 21.2779V43.8191C10.8335 49.3114 15.2859 53.7638 20.7782 53.7638H43.3194C48.8117 53.7638 53.2641 49.3114 53.2641 43.8191V21.2779C53.2641 15.7856 48.8117 11.3333 43.3194 11.3333Z" fill="url(#paint1_radial_0_1535)"/>
<path d="M32.05 15.9741C27.5488 15.9741 26.9837 15.9938 25.2159 16.0742C23.4514 16.1551 22.2469 16.4344 21.1931 16.8443C20.1029 17.2676 19.1782 17.8339 18.257 18.7555C17.3349 19.6768 16.7686 20.6015 16.3439 21.6913C15.9329 22.7454 15.6533 23.9504 15.5739 25.7141C15.4948 27.4821 15.4741 28.0473 15.4741 32.5487C15.4741 37.0502 15.494 37.6134 15.5742 39.3812C15.6554 41.1457 15.9347 42.3502 16.3443 43.404C16.7679 44.4942 17.3343 45.4189 18.2558 46.3401C19.1769 47.2622 20.1015 47.8299 21.191 48.2532C22.2456 48.6631 23.4502 48.9423 25.2144 49.0232C26.9824 49.1036 27.5469 49.1233 32.0481 49.1233C36.5498 49.1233 37.113 49.1036 38.8809 49.0232C40.6454 48.9423 41.8512 48.6631 42.9058 48.2532C43.9956 47.8299 44.9189 47.2622 45.8398 46.3401C46.7618 45.4189 47.328 44.4942 47.7528 43.4045C48.1602 42.3502 48.44 41.1454 48.5229 39.3815C48.6023 37.6137 48.623 37.0502 48.623 32.5487C48.623 28.0473 48.6023 27.4824 48.5229 25.7144C48.44 23.9499 48.1602 22.7456 47.7528 21.6918C47.328 20.6015 46.7618 19.6768 45.8398 18.7555C44.9179 17.8336 43.9959 17.2673 42.9048 16.8444C41.8482 16.4344 40.6431 16.1549 38.8785 16.0742C37.1106 15.9938 36.5477 15.9741 32.0449 15.9741H32.05ZM30.5632 18.961C31.0045 18.9603 31.497 18.961 32.05 18.961C36.4756 18.961 37 18.9769 38.7476 19.0563C40.3636 19.1302 41.2407 19.4002 41.825 19.6271C42.5985 19.9275 43.15 20.2866 43.7297 20.8669C44.3098 21.447 44.6688 21.9994 44.97 22.773C45.1969 23.3564 45.4672 24.2335 45.5408 25.8495C45.6202 27.5968 45.6374 28.1215 45.6374 32.5449C45.6374 36.9683 45.6202 37.4932 45.5408 39.2403C45.4669 40.8563 45.1969 41.7334 44.97 42.317C44.6697 43.0906 44.3098 43.6413 43.7297 44.2211C43.1496 44.8012 42.5989 45.1602 41.825 45.4607C41.2414 45.6886 40.3636 45.9579 38.7476 46.0319C37.0003 46.1113 36.4756 46.1285 32.05 46.1285C27.6243 46.1285 27.0998 46.1113 25.3527 46.0319C23.7366 45.9573 22.8595 45.6873 22.2748 45.4604C21.5014 45.1599 20.9488 44.8009 20.3687 44.2208C19.7886 43.6407 19.4296 43.0896 19.1285 42.3157C18.9015 41.7321 18.6312 40.855 18.5576 39.239C18.4782 37.4917 18.4623 36.967 18.4623 32.5408C18.4623 28.1147 18.4782 27.5926 18.5576 25.8454C18.6316 24.2294 18.9015 23.3522 19.1285 22.768C19.4289 21.9945 19.7886 21.442 20.3689 20.8619C20.949 20.2818 21.5014 19.9226 22.2749 19.6217C22.8592 19.3938 23.7366 19.1244 25.3527 19.0502C26.8816 18.9811 27.4742 18.9603 30.5632 18.9569V18.961ZM40.8975 21.713C39.7994 21.713 38.9086 22.6031 38.9086 23.7013C38.9086 24.7993 39.7994 25.6902 40.8975 25.6902C41.9955 25.6902 42.8864 24.7993 42.8864 23.7013C42.8864 22.6032 41.9955 21.7124 40.8975 21.7124V21.713ZM32.05 24.0369C27.3495 24.0369 23.5384 27.848 23.5384 32.5487C23.5384 37.2494 27.3495 41.0587 32.05 41.0587C36.7507 41.0587 40.5605 37.2494 40.5605 32.5487C40.5605 27.8482 36.7504 24.0369 32.0497 24.0369H32.05ZM32.05 27.0238C35.1012 27.0238 37.575 29.4972 37.575 32.5487C37.575 35.5999 35.1012 38.0736 32.05 38.0736C28.9987 38.0736 26.5253 35.5999 26.5253 32.5487C26.5253 29.4972 28.9987 27.0238 32.05 27.0238Z" fill="white"/>
</g>
<defs>
<radialGradient id="paint0_radial_0_1535" cx="0" cy="0" r="1" gradientUnits="userSpaceOnUse" gradientTransform="translate(22.1041 57.0318) rotate(-90) scale(42.0518 39.1115)">
<stop stop-color="#FFDD55"/>
<stop offset="0.1" stop-color="#FFDD55"/>
<stop offset="0.5" stop-color="#FF543E"/>
<stop offset="1" stop-color="#C837AB"/>
</radialGradient>
<radialGradient id="paint1_radial_0_1535" cx="0" cy="0" r="1" gradientUnits="userSpaceOnUse" gradientTransform="translate(3.72621 14.3897) rotate(78.681) scale(18.7974 77.4835)">
<stop stop-color="#3771C8"/>
<stop offset="0.128" stop-color="#3771C8"/>
<stop offset="1" stop-color="#6600FF" stop-opacity="0"/>
</radialGradient>
<clipPath id="clip0_0_1535">
<rect width="42.4306" height="42.4306" fill="white" transform="translate(10.8335 11.3333)"/>
</clipPath>
</defs>
</svg>
