<svg width="73" height="73" viewBox="0 0 73 73" fill="none" xmlns="http://www.w3.org/2000/svg">
<g clip-path="url(#clip0_0_1072)">
<mask id="mask0_0_1072" style="mask-type:luminance" maskUnits="userSpaceOnUse" x="0" y="0" width="73" height="73">
<path d="M72.9289 0.472656H0.979004V72.4226H72.9289V0.472656Z" fill="white"/>
</mask>
<g mask="url(#mask0_0_1072)">
<path opacity="0.1" d="M53.0279 0.472656H20.8801C9.88901 0.472656 0.979004 9.38266 0.979004 20.3737V52.5215C0.979004 63.5126 9.88901 72.4226 20.8801 72.4226H53.0279C64.0189 72.4226 72.9289 63.5126 72.9289 52.5215V20.3737C72.9289 9.38266 64.0189 0.472656 53.0279 0.472656Z" fill="#1B273D"/>
<path d="M36.9542 60.9473C50.485 60.9473 61.4539 49.9784 61.4539 36.4476C61.4539 22.9168 50.485 11.948 36.9542 11.948C23.4234 11.948 12.4546 22.9168 12.4546 36.4476C12.4546 49.9784 23.4234 60.9473 36.9542 60.9473Z" fill="white"/>
<path d="M49.3125 25.4722H25.7297C25.1897 25.4722 24.751 25.9109 24.751 26.4509V42.6481C24.751 43.1881 25.1897 43.6269 25.7297 43.6269H49.3125C49.8525 43.6269 50.2913 43.1881 50.2913 42.6481V26.4509C50.2913 25.9109 49.8554 25.4722 49.3125 25.4722Z" fill="#B7D5E5"/>
<path d="M48.9607 41.8999H26.0811L26.3511 27.199H48.6907L48.9607 41.8999Z" fill="url(#paint0_radial_0_1072)"/>
<path d="M53.5567 53.3244H21.6348C21.5139 53.3244 21.4014 53.316 21.2973 53.2991C20.4873 53.1754 20.1133 52.1235 20.5942 51.4035L20.7039 51.2375H54.3386L54.4511 51.4063C54.9742 52.1882 54.4848 53.3075 53.5961 53.3216C53.5848 53.3244 53.5708 53.3244 53.5567 53.3244Z" fill="#2F7889"/>
<path d="M49.5487 43.9277H25.2937C24.9365 43.9277 24.5793 44.1443 24.3796 44.4874L20.4421 51.6537C20.2762 51.9012 20.4393 52.2499 20.7206 52.2499H54.3187C54.5999 52.2499 54.7631 51.9012 54.5971 51.6537L50.4599 44.4452C50.2631 44.1415 49.9059 43.9277 49.5487 43.9277Z" fill="#EEEEEE"/>
<path d="M43.7888 50.99H31.2563L32.0579 48.7456H43.0463L43.7888 50.99Z" fill="#B7D5E5"/>
<path opacity="0.57" d="M39.9442 45.1737L39.8683 44.5549H38.9008L38.9374 45.1737H39.9442ZM38.3833 45.1737L38.3439 44.5549H37.3736V45.1737H38.3833ZM45.828 45.1737L45.6002 44.5549H44.6833L44.8746 45.1737H45.828ZM44.3514 45.1737L44.1602 44.5549H43.2264L43.3783 45.1737H44.3514ZM42.8946 45.1737L42.7427 44.5549H41.7949L41.9102 45.1737H42.8946ZM48.2186 45.1737L47.9514 44.5549H46.0642L46.2949 45.1737H48.2186ZM41.328 45.1737L41.2127 44.5549H40.2536L40.3324 45.1737H41.328ZM28.9952 45.1737L29.1864 44.5549H28.2696L28.0417 45.1737H28.9952ZM33.7061 45.1737L33.7821 44.5549H32.823L32.7105 45.1737H33.7061ZM30.5674 45.1737L30.7192 44.5549H29.7855L29.5971 45.1737H30.5674ZM27.423 45.1737L27.6508 44.5549H26.7564L26.4892 45.1737H27.423ZM32.1367 45.1737L32.2521 44.5549H31.3042L31.1524 45.1737H32.1367ZM35.2727 45.1737L35.3121 44.5549H34.3446L34.2686 45.1737H35.2727ZM36.8392 45.1737V44.5549H35.8689L35.8296 45.1737H36.8392ZM43.0633 47.674H31.9764L31.7655 48.2927H43.3192L43.0633 47.674ZM48.2299 48.2927L47.8896 47.674H49.7289L49.9961 48.2927H48.2299ZM43.8986 48.2927L43.6652 47.674H45.4342L45.7042 48.2927H43.8986ZM46.3286 48.2927L46.0586 47.674H47.2708L47.5802 48.2927H46.3286ZM26.7199 48.2927L27.0602 47.674H25.2208L24.9536 48.2927H26.7199ZM31.0511 48.2927L31.2846 47.674H29.5155L29.2455 48.2927H31.0511ZM28.6183 48.2927L28.8911 47.674H27.6789L27.3667 48.2927H28.6183ZM27.8561 46.2059L28.0867 45.5899H26.2108L25.9436 46.2059H27.8561ZM47.0486 46.2059L46.8208 45.5899H48.6939L48.9611 46.2059H47.0486ZM46.5705 46.2059L46.3005 45.5899H45.2177L45.4483 46.2059H46.5705ZM43.7524 46.2059L43.5696 45.5899H44.6524L44.8717 46.2059H43.7524ZM42.0536 46.2059L41.9214 45.5899H43.0042L43.173 46.2059H42.0536ZM40.3549 46.2059L40.2761 45.5899H41.3561L41.4771 46.2059H40.3549ZM38.6589 46.2059L38.628 45.5899H39.7108L39.7783 46.2059H38.6589ZM36.9602 46.2059L36.9799 45.5899H38.0627L38.0795 46.2059H36.9602ZM35.2614 46.2059L35.3317 45.5899H36.4146L36.3836 46.2059H35.2614ZM33.5655 46.2059L33.6836 45.5899H34.7664L34.6849 46.2059H33.5655ZM31.8667 46.2059L32.0355 45.5899H33.1183L32.9861 46.2059H31.8667ZM30.168 46.2059L30.3874 45.5899H31.4702L31.2902 46.2059H30.168ZM28.4721 46.2059L28.7392 45.5899H29.8221L29.5914 46.2059H28.4721ZM27.8533 47.2493L28.0811 46.6306H25.6202L25.353 47.2493H27.8533ZM46.4636 47.2493L46.2471 46.6306H45.0742L45.2542 47.2493H46.4636ZM43.3867 47.2493L43.2517 46.6306H44.4217L44.5961 47.2493H43.3867ZM41.5164 47.2493L41.4264 46.6306H42.5992L42.7258 47.2493H41.5164ZM39.6489 47.2493L39.6011 46.6306H40.7739L40.8583 47.2493H39.6489ZM37.7814 47.2493L37.7786 46.6306H38.9486L38.9908 47.2493H37.7814ZM35.9139 47.2493L35.9533 46.6306H37.1261L37.1233 47.2493H35.9139ZM34.0436 47.2493L34.128 46.6306H35.3008L35.253 47.2493H34.0436ZM32.1761 47.2493L32.3055 46.6306H33.4755L33.3855 47.2493H32.1761ZM30.3086 47.2493L30.4802 46.6306H31.653L31.518 47.2493H30.3086ZM28.4383 47.2493L28.6549 46.6306H29.8277L29.6505 47.2493H28.4383ZM46.9136 47.2493L46.683 46.6306H49.1439L49.4111 47.2493H46.9136Z" fill="#69A1BA"/>
<path d="M54.5804 51.6537L50.5473 44.4875C50.3476 44.1865 49.9904 43.97 49.6332 43.97C49.6332 43.97 49.9763 44.2793 50.0804 44.4284L53.6213 51.0631C53.7788 51.35 53.5707 51.6987 53.2445 51.6987H21.7388C21.4154 51.6987 21.2073 51.3528 21.3592 51.0687L24.7201 44.5493C24.8185 44.3806 25.2488 43.9897 25.2488 43.9897H25.1223C24.7651 43.9897 24.4079 44.2062 24.2082 44.5493L20.4226 51.6537C20.2567 51.9012 20.4198 52.25 20.701 52.25H54.2992C54.5832 52.25 54.7463 51.9012 54.5804 51.6537Z" fill="#B7D5E5"/>
<path d="M26.8042 26.3806H30.5195" stroke="#EEEEEE" stroke-width="0.82575" stroke-miterlimit="10" stroke-linecap="round"/>
<path d="M50.2601 26.9683C50.2601 26.6758 49.976 26.6533 49.976 26.9993V42.693C49.976 43.0699 49.6695 43.3765 49.2926 43.3765H25.7098C25.3329 43.3765 25.0263 43.0699 25.0263 42.693V26.9993C25.0263 26.6533 24.7423 26.6758 24.7423 26.9683L24.4751 42.693C24.4751 43.3736 24.8238 43.9277 25.7098 43.9277H49.2926C50.0604 43.9277 50.5273 43.3736 50.5273 42.693L50.2601 26.9683Z" fill="#75A7BC"/>
</g>
</g>
<defs>
<radialGradient id="paint0_radial_0_1072" cx="0" cy="0" r="1" gradientUnits="userSpaceOnUse" gradientTransform="translate(33.1146 19.6058) scale(21.2245 23.0138)">
<stop stop-color="#2F7889"/>
<stop offset="1" stop-color="#424242"/>
</radialGradient>
<clipPath id="clip0_0_1072">
<rect width="71.9499" height="71.9499" fill="white" transform="translate(0.979004 0.472656)"/>
</clipPath>
</defs>
</svg>
