<svg width="73" height="73" viewBox="0 0 73 73" fill="none" xmlns="http://www.w3.org/2000/svg">
<g clip-path="url(#clip0_0_1094)">
<g clip-path="url(#clip1_0_1094)">
<mask id="mask0_0_1094" style="mask-type:luminance" maskUnits="userSpaceOnUse" x="0" y="0" width="73" height="73">
<path d="M72.3992 0.441406H0.449219V72.3913H72.3992V0.441406Z" fill="white"/>
</mask>
<g mask="url(#mask0_0_1094)">
<path opacity="0.1" d="M52.4981 0.441406H20.3503C9.35922 0.441406 0.449219 9.35141 0.449219 20.3425V52.4903C0.449219 63.4813 9.35922 72.3913 20.3503 72.3913H52.4981C63.4892 72.3913 72.3992 63.4813 72.3992 52.4903V20.3425C72.3992 9.35141 63.4892 0.441406 52.4981 0.441406Z" fill="#1B273D"/>
<path d="M36.4245 60.916C49.9553 60.916 60.9241 49.9472 60.9241 36.4164C60.9241 22.8856 49.9553 11.9167 36.4245 11.9167C22.8937 11.9167 11.9248 22.8856 11.9248 36.4164C11.9248 49.9472 22.8937 60.916 36.4245 60.916Z" fill="white"/>
<path d="M23.5674 24.259C27.7992 20.2623 34.6603 20.2623 38.8921 24.259C42.7647 27.9165 43.0926 33.6534 39.8771 37.6638L41.545 39.2391L39.4287 41.2379L37.7608 39.6626C33.5143 42.6994 27.44 42.3898 23.5673 38.7323C19.3356 34.7355 19.3356 28.2557 23.5674 24.259Z" fill="#005189"/>
<path d="M31.23 39.8416C36.1105 39.8416 40.067 36.105 40.067 31.4956C40.067 26.8863 36.1105 23.1497 31.23 23.1497C26.3495 23.1497 22.3931 26.8863 22.3931 31.4956C22.3931 36.105 26.3495 39.8416 31.23 39.8416Z" fill="#70C4EA"/>
<path d="M25.2701 36.4533C28.7212 39.7126 34.3164 39.7126 37.7674 36.4533C38.7219 35.5519 39.4111 34.4952 39.8376 33.3696C39.489 34.8766 38.6969 36.3104 37.4563 37.482C34.0052 40.7414 28.4099 40.7414 24.9589 37.482C22.4623 35.1241 21.7731 31.7068 22.8887 28.7627C22.2676 31.4476 23.0596 34.3656 25.2701 36.4533Z" fill="#00A7E0"/>
<path d="M50.4999 49.6948C51.5148 48.7363 51.903 47.5345 51.3628 47.0242L41.9292 38.8444C41.3889 38.334 40.5027 38.336 39.4879 39.2945C38.473 40.253 38.471 41.09 39.0113 41.6002L47.6723 50.5096C48.2126 51.0199 49.4851 50.6533 50.4999 49.6948Z" fill="#1F356B"/>
<path d="M49.4693 45.383L45.9339 48.722L41.6689 44.3347L44.824 41.355L49.4693 45.383Z" fill="#5BC0A4"/>
</g>
</g>
</g>
<defs>
<clipPath id="clip0_0_1094">
<rect width="71.9499" height="71.9499" fill="white" transform="translate(0.449219 0.441406)"/>
</clipPath>
<clipPath id="clip1_0_1094">
<rect width="71.9499" height="71.9499" fill="white" transform="translate(0.449219 0.441406)"/>
</clipPath>
</defs>
</svg>
