<svg width="73" height="73" viewBox="0 0 73 73" fill="none" xmlns="http://www.w3.org/2000/svg">
<g clip-path="url(#clip0_0_1114)">
<mask id="mask0_0_1114" style="mask-type:luminance" maskUnits="userSpaceOnUse" x="0" y="0" width="73" height="73">
<path d="M72.7434 0.441406H0.793457V72.3913H72.7434V0.441406Z" fill="white"/>
</mask>
<g mask="url(#mask0_0_1114)">
<path opacity="0.1" d="M52.8424 0.441406H20.6945C9.70346 0.441406 0.793457 9.35141 0.793457 20.3425V52.4903C0.793457 63.4813 9.70346 72.3913 20.6945 72.3913H52.8424C63.8334 72.3913 72.7434 63.4813 72.7434 52.4903V20.3425C72.7434 9.35141 63.8334 0.441406 52.8424 0.441406Z" fill="#1B273D"/>
<path d="M36.7687 60.916C50.2995 60.916 61.2683 49.9472 61.2683 36.4164C61.2683 22.8856 50.2995 11.9167 36.7687 11.9167C23.2379 11.9167 12.269 22.8856 12.269 36.4164C12.269 49.9472 23.2379 60.916 36.7687 60.916Z" fill="white"/>
<path d="M31.5332 26.6641H32.5991V28.9253H31.5332V26.6641ZM41.4698 26.6641H42.5357V28.9253H41.4698V26.6641Z" fill="#1B273D"/>
<path d="M51.5129 53.875H21.4726C20.4038 53.875 20.176 52.5784 20.176 52.5784C18.9329 43.6656 20.176 30.4862 20.176 30.4862C20.176 29.3978 21.0592 28.5146 22.1476 28.5146H50.8323C51.9207 28.5146 52.8039 29.3978 52.8039 30.4862C52.8039 30.4862 54.0751 45.7018 52.8039 52.5784C52.8095 52.5784 52.4157 53.875 51.5129 53.875Z" fill="#1B273D"/>
<path d="M51.5129 53.875H21.4726C20.4038 53.875 20.176 52.5784 20.176 52.5784C18.9329 43.6656 20.176 30.4862 20.176 30.4862C20.176 29.3978 21.0592 28.5146 22.1476 28.5146H50.8323C51.9207 28.5146 52.8039 29.3978 52.8039 30.4862C52.8039 30.4862 54.0751 45.7018 52.8039 52.5784C52.8095 52.5784 52.4157 53.875 51.5129 53.875Z" fill="#1B273D"/>
<path d="M52.5371 32.2159C52.3936 31.1809 52.6467 29.9209 51.7692 29.1643C51.4182 28.8502 50.9634 28.6769 50.4924 28.6777H22.4967C20.5336 28.7284 20.5083 30.6634 20.438 32.2159H20.528C20.5477 38.2909 21.428 41.8909 36.5283 41.8909C52.4949 41.8909 52.5314 38.6931 52.5314 32.2159H52.5371Z" fill="#1B273D"/>
<path d="M22.1511 28.5146C19.8307 28.6778 20.6126 30.8715 20.5339 31.915C20.5339 31.915 21.0148 30.5762 22.0779 30.5762H51.072C52.1436 30.5762 52.512 31.915 52.512 31.915C52.4389 30.8771 53.2517 28.7509 50.8357 28.5146H22.1511Z" fill="#1B273D"/>
<path d="M52.7902 30.2191C52.7845 30.169 52.7761 30.1193 52.7649 30.0701C52.7621 30.0504 52.7537 30.0307 52.7508 30.011C52.7396 29.9632 52.7255 29.9154 52.7115 29.8704L52.6946 29.8198C52.6777 29.772 52.658 29.7241 52.6383 29.6763C52.6335 29.6633 52.6269 29.651 52.6187 29.6398C52.5962 29.5891 52.5708 29.5413 52.5427 29.4935L52.5258 29.4682C52.4956 29.4177 52.4628 29.3689 52.4274 29.322C52.4246 29.3163 52.419 29.3107 52.4162 29.3079C52.3768 29.2573 52.3374 29.2095 52.2952 29.1616L52.2896 29.156C52.2446 29.1082 52.1968 29.0604 52.1462 29.0154C52.2699 29.6538 52.3487 30.236 52.3487 30.6016V32.1429H52.928V32.0754L52.9196 31.9516L52.9027 31.7323L52.8943 31.6198C52.8887 31.5523 52.8858 31.4848 52.8802 31.4229L52.8718 31.302C52.869 31.2457 52.8633 31.1895 52.8605 31.1388C52.8577 31.1135 52.8577 31.0938 52.8549 31.0713C52.8521 31.0179 52.8465 30.9616 52.8437 30.9138C52.8408 30.8688 52.838 30.8323 52.8352 30.7929C52.8324 30.7732 52.8324 30.7507 52.8296 30.731C52.824 30.6495 52.8183 30.5932 52.8155 30.5538C52.8127 30.5145 52.8099 30.4863 52.8099 30.4863C52.8099 30.416 52.8071 30.3457 52.7987 30.2754L52.7902 30.2191ZM20.1624 30.6495C20.1596 30.6804 20.1568 30.7141 20.154 30.7535C20.1505 30.7796 20.1486 30.8059 20.1483 30.8323C20.1455 30.8688 20.1427 30.9082 20.1371 30.9504C20.1371 30.9616 20.1343 30.9729 20.1343 30.9841V32.1429H20.7137V30.6016C20.7137 30.2248 20.8008 29.606 20.933 28.9395C20.7615 29.0745 20.6152 29.2348 20.4971 29.4176C20.4915 29.426 20.4887 29.4316 20.483 29.4401C20.4521 29.4907 20.4212 29.5413 20.393 29.5948C20.3846 29.6116 20.3762 29.6285 20.3705 29.6426C20.348 29.6876 20.3283 29.7354 20.3115 29.7832C20.303 29.8029 20.2946 29.8254 20.289 29.8451C20.2721 29.8901 20.2608 29.9379 20.2468 29.9829C20.2412 30.0054 20.2327 30.0279 20.2299 30.0532C20.2187 30.101 20.2102 30.1516 20.2046 30.2023C20.2018 30.2248 20.1962 30.2473 20.1933 30.267C20.1849 30.3401 20.1793 30.4104 20.1793 30.4863C20.1793 30.4863 20.1765 30.5285 20.168 30.6073C20.1652 30.6185 20.1652 30.6354 20.1624 30.6495Z" fill="#A06841"/>
<path d="M52.5902 33.7122C52.5873 36.6793 52.1598 38.1447 50.402 39.565C48.3911 41.1906 44.0767 41.9162 36.4183 41.9162C29.207 41.9162 24.8505 41.1034 22.7073 39.3568C20.882 37.8718 20.4939 36.3643 20.4686 33.7122H20.1367C20.193 39.7309 21.3405 43.2859 36.5308 43.2859C52.6098 43.2859 52.922 40.1218 52.9277 33.7122H52.5902Z" fill="#1B273D"/>
<path d="M52.8969 32.0726C52.8266 31.077 52.7788 30.4863 52.7788 30.4863C52.7788 29.8985 52.52 29.3754 52.115 29.0126C52.2388 29.651 52.3175 30.2332 52.3175 30.5988V32.0951C52.3175 35.3154 52.3175 37.6441 50.4838 39.1263C48.4728 40.752 44.1585 41.4776 36.5 41.4776C29.2888 41.4776 24.9322 40.6648 22.7891 38.9182C20.8372 37.3291 20.6825 34.9048 20.6825 31.901V30.6016C20.6825 30.2248 20.7697 29.606 20.9019 28.9395C20.6668 29.1235 20.4767 29.3588 20.3461 29.6273C20.2155 29.8958 20.1478 30.1905 20.1481 30.4891C20.1481 30.4891 20.1313 30.6635 20.106 30.9841V31.901C20.106 38.2713 20.8288 42.057 36.5028 42.057C52.9166 42.057 52.8997 38.7579 52.8969 32.0726Z" fill="#FFB636"/>
<path d="M19.8418 49.3469C19.9121 50.1035 20.0809 51.8669 20.1793 52.5785C20.1793 52.5785 20.4043 53.875 21.4759 53.875H51.5162C52.419 53.875 52.8127 52.5785 52.8127 52.5785C52.9365 51.9119 53.1081 50.2666 53.1981 49.3863C53.1981 49.3863 52.7059 50.095 50.2646 50.6463C47.8262 51.1947 42.983 50.7954 37.9262 50.7897C31.1987 50.7813 24.1337 50.9979 22.2437 50.5197C20.6434 50.1175 19.8418 49.3469 19.8418 49.3469Z" fill="#1B273D"/>
<path d="M37.1303 26.2787C38.275 26.2872 39.3606 26.484 40.224 26.7709C40.5278 26.8722 41.7821 27.6568 42.2265 27.564C42.4628 27.5078 42.9746 27.3109 42.8537 26.664C42.7187 25.9384 41.664 25.8625 40.854 25.5643C39.7093 25.1453 38.3903 24.9934 37.1303 24.9934C35.9181 24.9934 34.6609 25.134 33.55 25.5109C32.7231 25.7922 31.1509 26.1943 31.314 26.9537C31.4687 27.6822 32.3068 27.6147 32.5121 27.5134C33.1084 27.2209 33.5837 26.9734 34.2503 26.7315C35.1081 26.4193 36.1571 26.2731 37.1303 26.2787Z" fill="#1B273D"/>
<path d="M37.0966 25.2944C39.6616 25.2944 40.7444 26.0707 41.335 26.4841C42.775 27.491 42.8735 26.9172 42.8538 26.6641C42.7779 25.6713 41.7654 24.9316 40.9357 24.5294C39.7657 23.9613 38.4129 23.7588 37.1219 23.7588C35.8816 23.7588 34.5963 23.9472 33.4572 24.4619C32.6107 24.8416 31.1144 25.795 31.2832 26.8329C31.4182 27.6485 32.4897 26.8554 32.6979 26.7175C33.311 26.3238 34.4304 25.2944 37.0966 25.2944Z" fill="#1B273D"/>
<path opacity="0.68" d="M31.6206 26.6642C31.3956 26.2479 31.8934 25.7192 32.11 25.5392C32.5431 25.182 33.0325 24.8754 33.5528 24.6645C33.82 24.5576 34.599 24.3945 34.6384 24.8135C34.6778 25.2382 33.6062 25.6601 33.3362 25.7923C32.3743 26.262 31.8343 27.0635 31.6206 26.6642Z" fill="white"/>
<path d="M38.2046 45.7383H34.7959C34.5765 45.7383 34.3965 45.5612 34.3965 45.339V43.1508C34.3965 42.9315 34.5737 42.7515 34.7959 42.7515H38.2018C38.4212 42.7515 38.6012 42.9287 38.6012 43.1508V45.339C38.6012 45.5612 38.424 45.7383 38.2046 45.7383Z" fill="#1B273D"/>
<path d="M38.4576 42.0652H34.5426C34.3767 42.0652 34.2417 41.9302 34.2417 41.7643V40.5802C34.2417 40.4143 34.3767 40.2793 34.5426 40.2793H38.4604C38.6264 40.2793 38.7614 40.4143 38.7614 40.5802V41.7643C38.7586 41.9302 38.6236 42.0652 38.4576 42.0652ZM38.2073 45.1702H34.7929C34.6354 45.1702 34.5061 45.0409 34.5061 44.8834V42.9793C34.5061 42.8218 34.6354 42.6924 34.7929 42.6924H38.2101C38.3676 42.6924 38.497 42.8218 38.497 42.9793V44.8834C38.4942 45.0409 38.3676 45.1702 38.2073 45.1702Z" fill="white"/>
<path d="M35.0289 41.1709C35.0289 41.8178 34.9305 41.8881 34.7167 41.8881C34.503 41.8881 34.4692 41.68 34.4692 41.1653C34.4692 40.6506 34.5058 40.4734 34.7336 40.4734C34.9614 40.4734 35.0289 40.524 35.0289 41.1709ZM35.3889 43.8793C35.3889 44.4981 35.4002 44.8637 35.1021 44.8637C34.8011 44.8637 34.773 44.515 34.773 43.8625C34.773 43.3928 34.773 43.0075 35.0852 43.0075C35.3946 43.0046 35.3889 43.2578 35.3889 43.8793Z" fill="#FFB636"/>
</g>
</g>
<defs>
<clipPath id="clip0_0_1114">
<rect width="71.9499" height="71.9499" fill="white" transform="translate(0.793457 0.441406)"/>
</clipPath>
</defs>
</svg>
