<svg width="65" height="66" viewBox="0 0 65 66" fill="none" xmlns="http://www.w3.org/2000/svg">
<rect y="0.5" width="65" height="65" rx="32.5" fill="white"/>
<g clip-path="url(#clip0_0_1524)">
<path d="M20.1895 49.7102V32.27L14.7808 27.3218L9.93066 24.5759V46.6324C9.93066 48.3354 11.3104 49.7102 13.0084 49.7102H20.1895Z" fill="#4285F4"/>
<path d="M44.8105 49.7102H51.9917C53.6948 49.7102 55.0694 48.3303 55.0694 46.6325V24.5762L49.5759 27.7213L44.8105 32.2701V49.7102Z" fill="#34A853"/>
<path d="M20.1896 32.27L19.4536 25.4556L20.1896 18.9336L32.5002 28.1666L44.8107 18.9336L45.634 25.1035L44.8107 32.27L32.5002 41.503L20.1896 32.27Z" fill="#EA4335"/>
<path d="M44.8105 18.9335V32.2699L55.0694 24.5758V20.4723C55.0694 16.6663 50.7248 14.4966 47.6832 16.7792L44.8105 18.9335Z" fill="#FBBC04"/>
<path d="M9.93066 24.5759L14.6489 28.1147L20.1895 32.27V18.9336L17.3169 16.7792C14.27 14.4966 9.93066 16.6664 9.93066 20.4722V24.5757V24.5759Z" fill="#C5221F"/>
</g>
<defs>
<clipPath id="clip0_0_1524">
<rect width="45.1389" height="34.0305" fill="white" transform="translate(9.93066 15.8472)"/>
</clipPath>
</defs>
</svg>
