<svg width="106" height="17" viewBox="0 0 106 17" fill="none" xmlns="http://www.w3.org/2000/svg">
<g clip-path="url(#clip0_0_1376)">
<path fill-rule="evenodd" clip-rule="evenodd" d="M9.01616 12.9872L3.85941 16.3662L5.47955 10.4177L0.672363 6.5575L6.83042 6.26014L9.01616 0.495361L11.2019 6.26014L17.36 6.5575L12.5528 10.4177L14.1729 16.3662L9.01616 12.9872Z" fill="#FFC54F"/>
</g>
<g clip-path="url(#clip1_0_1376)">
<path fill-rule="evenodd" clip-rule="evenodd" d="M31.0167 12.9852L25.8599 16.3643L27.48 10.4157L22.6729 6.55555L28.8309 6.25819L31.0167 0.493408L33.2024 6.25819L39.3605 6.55555L34.5533 10.4157L36.1734 16.3643L31.0167 12.9852Z" fill="#FFC54F"/>
</g>
<g clip-path="url(#clip2_0_1376)">
<path fill-rule="evenodd" clip-rule="evenodd" d="M53.0401 12.9872L47.8833 16.3662L49.5035 10.4177L44.6963 6.5575L50.8543 6.26014L53.0401 0.495361L55.2258 6.26014L61.3839 6.5575L56.5767 10.4177L58.1968 16.3662L53.0401 12.9872Z" fill="#FFC54F"/>
</g>
<g clip-path="url(#clip3_0_1376)">
<path fill-rule="evenodd" clip-rule="evenodd" d="M75.0362 12.9852L69.8794 16.3643L71.4996 10.4157L66.6924 6.55555L72.8504 6.25819L75.0362 0.493408L77.2219 6.25819L83.38 6.55555L78.5728 10.4157L80.1929 16.3643L75.0362 12.9852Z" fill="#FFC54F"/>
</g>
<g clip-path="url(#clip4_0_1376)">
<path fill-rule="evenodd" clip-rule="evenodd" d="M97.0601 12.9833L91.9034 16.3623L93.5235 10.4138L88.7163 6.55359L94.8744 6.25624L97.0601 0.491455L99.2459 6.25624L105.404 6.55359L100.597 10.4138L102.217 16.3623L97.0601 12.9833Z" fill="#FFC54F"/>
</g>
<defs>
<clipPath id="clip0_0_1376">
<rect width="17.5464" height="16.0842" fill="white" transform="translate(0.236328 0.501343)"/>
</clipPath>
<clipPath id="clip1_0_1376">
<rect width="17.5464" height="16.0842" fill="white" transform="translate(22.252 0.501343)"/>
</clipPath>
<clipPath id="clip2_0_1376">
<rect width="17.5464" height="16.0842" fill="white" transform="translate(44.2676 0.501343)"/>
</clipPath>
<clipPath id="clip3_0_1376">
<rect width="17.5464" height="16.0842" fill="white" transform="translate(66.2832 0.501343)"/>
</clipPath>
<clipPath id="clip4_0_1376">
<rect width="17.5464" height="16.0842" fill="white" transform="translate(88.2988 0.501343)"/>
</clipPath>
</defs>
</svg>
